# xmcd
#
# Track frame offsets:
#	150
#	14610
#	31232
#	43726
#	68951
#	85744
#	99645
#	117158
#	136873
#	150889
#	170907
#	183294
#
# Disc length: 2628 seconds
#
# Revision: 1
# Processed by: cddbd v1.5.2PL0 Copyright (c) Steve Scherf et al.
# Submitted via: audiograbber 1.83.01
#
DISCID=960a420c
DTITLE=CLOPATRA STRATAN - Colinde de Crãciun
DYEAR=2009
DGENRE=Chistmas songs
TTITLE0=Domn, Domn, sã-nãltãm
TTITLE1=Îngerii soptesc
TTITLE2=Steaua sus rãsare
TTITLE3=Deschide  usa, crestine
TTITLE4=A venit, a venit, iarna
TTITLE5=La Betleem colo-n jos
TTITLE6=Într-un miez de noapte
TTITLE7=Leru-i Doamne
TTITLE8=Florile dalbe
TTITLE9=Seara de Crãciun
TTITLE10=Astãzi s-a nãscut Hristos
TTITLE11=Maria si Iosif colindã
EXTD=
EXTT0=
EXTT1=
EXTT2=
EXTT3=
EXTT4=
EXTT5=
EXTT6=
EXTT7=
EXTT8=
EXTT9=
EXTT10=
EXTT11=
PLAYORDER=
